<mxfile host="app.diagrams.net" modified="2023-04-26T09:59:00.548Z" agent="Mozilla/5.0 (Windows NT 10.0; Win64; x64) AppleWebKit/537.36 (KHTML, like Gecko) Chrome/112.0.0.0 Safari/537.36" etag="TbS9miOusDpAEUzkf_CQ" version="21.1.8" type="device">
  <diagram name="Page-1" id="GylVfzi0xPvJJQHYP8Fk">
    <mxGraphModel dx="1434" dy="749" grid="1" gridSize="10" guides="1" tooltips="1" connect="1" arrows="1" fold="1" page="1" pageScale="1" pageWidth="850" pageHeight="1100" math="0" shadow="0">
      <root>
        <mxCell id="0" />
        <mxCell id="1" parent="0" />
        <mxCell id="atxJQaqEpM3TSjmgH-MS-1" value="" style="rounded=1;whiteSpace=wrap;html=1;shadow=0;sketch=0;strokeColor=none;strokeWidth=4;fillColor=#E3E6B8;gradientColor=none;" vertex="1" parent="1">
          <mxGeometry x="60" y="100" width="480" height="550" as="geometry" />
        </mxCell>
        <mxCell id="atxJQaqEpM3TSjmgH-MS-37" style="edgeStyle=orthogonalEdgeStyle;rounded=0;orthogonalLoop=1;jettySize=auto;html=1;exitX=1;exitY=0.5;exitDx=0;exitDy=0;strokeWidth=2;" edge="1" parent="1" source="atxJQaqEpM3TSjmgH-MS-11" target="atxJQaqEpM3TSjmgH-MS-20">
          <mxGeometry relative="1" as="geometry" />
        </mxCell>
        <mxCell id="atxJQaqEpM3TSjmgH-MS-39" style="edgeStyle=orthogonalEdgeStyle;rounded=0;orthogonalLoop=1;jettySize=auto;html=1;exitX=0.5;exitY=1;exitDx=0;exitDy=0;strokeWidth=2;" edge="1" parent="1" source="atxJQaqEpM3TSjmgH-MS-11" target="atxJQaqEpM3TSjmgH-MS-21">
          <mxGeometry relative="1" as="geometry">
            <Array as="points">
              <mxPoint x="165" y="240" />
              <mxPoint x="165" y="240" />
            </Array>
          </mxGeometry>
        </mxCell>
        <mxCell id="atxJQaqEpM3TSjmgH-MS-11" value="&lt;font style=&quot;font-size: 20px;&quot;&gt;&lt;b&gt;Client Software&lt;/b&gt;&lt;/font&gt;" style="rounded=1;arcSize=10;whiteSpace=wrap;html=1;align=center;strokeColor=#000000;strokeWidth=3;fillColor=#FFD966;perimeterSpacing=0;shadow=1;" vertex="1" parent="1">
          <mxGeometry x="110" y="140" width="110" height="60" as="geometry" />
        </mxCell>
        <mxCell id="atxJQaqEpM3TSjmgH-MS-20" value="&lt;font size=&quot;1&quot; style=&quot;&quot;&gt;&lt;b style=&quot;font-size: 18px;&quot;&gt;Adaptive entity model framework (e.g. Modicio)&lt;/b&gt;&lt;/font&gt;" style="rounded=1;arcSize=10;whiteSpace=wrap;html=1;align=center;strokeColor=#000000;strokeWidth=3;fillColor=#FFD966;perimeterSpacing=0;shadow=1;" vertex="1" parent="1">
          <mxGeometry x="320" y="130" width="170" height="80" as="geometry" />
        </mxCell>
        <mxCell id="atxJQaqEpM3TSjmgH-MS-32" value="" style="group" vertex="1" connectable="0" parent="1">
          <mxGeometry x="110" y="260" width="380" height="210" as="geometry" />
        </mxCell>
        <mxCell id="atxJQaqEpM3TSjmgH-MS-21" value="" style="rounded=1;arcSize=10;whiteSpace=wrap;html=1;align=center;strokeColor=#000000;strokeWidth=3;fillColor=#FFD966;perimeterSpacing=0;shadow=1;" vertex="1" parent="atxJQaqEpM3TSjmgH-MS-32">
          <mxGeometry width="380" height="210" as="geometry" />
        </mxCell>
        <mxCell id="atxJQaqEpM3TSjmgH-MS-22" value="&lt;b&gt;&lt;font style=&quot;font-size: 19px;&quot;&gt;Specification&lt;/font&gt;&lt;/b&gt;" style="text;html=1;strokeColor=none;fillColor=none;align=center;verticalAlign=middle;whiteSpace=wrap;rounded=0;" vertex="1" parent="atxJQaqEpM3TSjmgH-MS-32">
          <mxGeometry x="35" y="170" width="125" height="30" as="geometry" />
        </mxCell>
        <mxCell id="atxJQaqEpM3TSjmgH-MS-23" value="&lt;font size=&quot;1&quot; style=&quot;&quot;&gt;&lt;b style=&quot;font-size: 19px;&quot;&gt;Mappers&lt;/b&gt;&lt;/font&gt;" style="rounded=1;arcSize=10;whiteSpace=wrap;html=1;align=center;strokeColor=#000000;strokeWidth=3;fillColor=#FFD966;perimeterSpacing=0;shadow=1;" vertex="1" parent="atxJQaqEpM3TSjmgH-MS-32">
          <mxGeometry x="35" y="80" width="110" height="60" as="geometry" />
        </mxCell>
        <mxCell id="atxJQaqEpM3TSjmgH-MS-24" value="&lt;font size=&quot;1&quot; style=&quot;&quot;&gt;&lt;b style=&quot;font-size: 19px;&quot;&gt;Domain&lt;/b&gt;&lt;/font&gt;" style="rounded=1;arcSize=10;whiteSpace=wrap;html=1;align=center;strokeColor=#000000;strokeWidth=3;fillColor=#FFD966;perimeterSpacing=0;shadow=1;" vertex="1" parent="atxJQaqEpM3TSjmgH-MS-32">
          <mxGeometry x="220" y="20" width="110" height="60" as="geometry" />
        </mxCell>
        <mxCell id="atxJQaqEpM3TSjmgH-MS-29" style="edgeStyle=orthogonalEdgeStyle;rounded=0;orthogonalLoop=1;jettySize=auto;html=1;exitX=0.5;exitY=0;exitDx=0;exitDy=0;strokeWidth=2;dashed=1;" edge="1" parent="atxJQaqEpM3TSjmgH-MS-32" source="atxJQaqEpM3TSjmgH-MS-23" target="atxJQaqEpM3TSjmgH-MS-24">
          <mxGeometry relative="1" as="geometry" />
        </mxCell>
        <mxCell id="atxJQaqEpM3TSjmgH-MS-26" style="edgeStyle=orthogonalEdgeStyle;rounded=0;orthogonalLoop=1;jettySize=auto;html=1;strokeWidth=2;dashed=1;" edge="1" parent="atxJQaqEpM3TSjmgH-MS-32" source="atxJQaqEpM3TSjmgH-MS-25" target="atxJQaqEpM3TSjmgH-MS-23">
          <mxGeometry relative="1" as="geometry">
            <Array as="points">
              <mxPoint x="275" y="110" />
            </Array>
          </mxGeometry>
        </mxCell>
        <mxCell id="atxJQaqEpM3TSjmgH-MS-28" style="edgeStyle=orthogonalEdgeStyle;rounded=0;orthogonalLoop=1;jettySize=auto;html=1;exitX=0.5;exitY=0;exitDx=0;exitDy=0;strokeWidth=2;dashed=1;" edge="1" parent="atxJQaqEpM3TSjmgH-MS-32" source="atxJQaqEpM3TSjmgH-MS-25" target="atxJQaqEpM3TSjmgH-MS-24">
          <mxGeometry relative="1" as="geometry" />
        </mxCell>
        <mxCell id="atxJQaqEpM3TSjmgH-MS-25" value="&lt;font size=&quot;1&quot; style=&quot;&quot;&gt;&lt;b style=&quot;font-size: 19px;&quot;&gt;Services&lt;/b&gt;&lt;/font&gt;" style="rounded=1;arcSize=10;whiteSpace=wrap;html=1;align=center;strokeColor=#000000;strokeWidth=3;fillColor=#FFD966;perimeterSpacing=0;shadow=1;" vertex="1" parent="atxJQaqEpM3TSjmgH-MS-32">
          <mxGeometry x="220" y="130" width="110" height="60" as="geometry" />
        </mxCell>
        <mxCell id="atxJQaqEpM3TSjmgH-MS-30" value="&lt;b&gt;&lt;font style=&quot;font-size: 15px;&quot;&gt;&amp;lt;&amp;lt;uses&amp;gt;&amp;gt;&lt;/font&gt;&lt;/b&gt;" style="text;html=1;strokeColor=none;fillColor=none;align=center;verticalAlign=middle;whiteSpace=wrap;rounded=0;" vertex="1" parent="atxJQaqEpM3TSjmgH-MS-32">
          <mxGeometry x="290" y="90" width="60" height="30" as="geometry" />
        </mxCell>
        <mxCell id="atxJQaqEpM3TSjmgH-MS-31" value="&lt;b&gt;&lt;font style=&quot;font-size: 15px;&quot;&gt;&amp;lt;&amp;lt;uses&amp;gt;&amp;gt;&lt;/font&gt;&lt;/b&gt;" style="text;html=1;strokeColor=none;fillColor=none;align=center;verticalAlign=middle;whiteSpace=wrap;rounded=0;" vertex="1" parent="atxJQaqEpM3TSjmgH-MS-32">
          <mxGeometry x="120" y="20" width="60" height="30" as="geometry" />
        </mxCell>
        <mxCell id="atxJQaqEpM3TSjmgH-MS-35" style="edgeStyle=orthogonalEdgeStyle;rounded=0;orthogonalLoop=1;jettySize=auto;html=1;exitX=0.5;exitY=0;exitDx=0;exitDy=0;endArrow=block;endFill=0;strokeWidth=2;endSize=13;" edge="1" parent="1" source="atxJQaqEpM3TSjmgH-MS-33" target="atxJQaqEpM3TSjmgH-MS-21">
          <mxGeometry relative="1" as="geometry" />
        </mxCell>
        <mxCell id="atxJQaqEpM3TSjmgH-MS-33" value="&lt;font size=&quot;1&quot; style=&quot;&quot;&gt;&lt;b style=&quot;font-size: 17px;&quot;&gt;Implementation with Gremlin&lt;/b&gt;&lt;/font&gt;" style="rounded=1;arcSize=10;whiteSpace=wrap;html=1;align=center;strokeColor=#000000;strokeWidth=3;fillColor=#FFD966;perimeterSpacing=0;shadow=1;" vertex="1" parent="1">
          <mxGeometry x="110" y="540" width="150" height="80" as="geometry" />
        </mxCell>
        <mxCell id="atxJQaqEpM3TSjmgH-MS-36" style="edgeStyle=orthogonalEdgeStyle;rounded=0;orthogonalLoop=1;jettySize=auto;html=1;exitX=0.5;exitY=0;exitDx=0;exitDy=0;endArrow=block;endFill=0;strokeWidth=2;endSize=13;" edge="1" parent="1" source="atxJQaqEpM3TSjmgH-MS-34" target="atxJQaqEpM3TSjmgH-MS-21">
          <mxGeometry relative="1" as="geometry" />
        </mxCell>
        <mxCell id="atxJQaqEpM3TSjmgH-MS-34" value="&lt;font size=&quot;1&quot; style=&quot;&quot;&gt;&lt;b style=&quot;font-size: 17px;&quot;&gt;Implementation with Shacl&lt;/b&gt;&lt;/font&gt;" style="rounded=1;arcSize=10;whiteSpace=wrap;html=1;align=center;strokeColor=#000000;strokeWidth=3;fillColor=#FFD966;perimeterSpacing=0;shadow=1;" vertex="1" parent="1">
          <mxGeometry x="340" y="540" width="150" height="80" as="geometry" />
        </mxCell>
        <mxCell id="atxJQaqEpM3TSjmgH-MS-38" value="&lt;b&gt;&lt;font style=&quot;font-size: 15px;&quot;&gt;&amp;lt;&amp;lt;uses&amp;gt;&amp;gt;&lt;/font&gt;&lt;/b&gt;" style="text;html=1;strokeColor=none;fillColor=none;align=center;verticalAlign=middle;whiteSpace=wrap;rounded=0;" vertex="1" parent="1">
          <mxGeometry x="237" y="142" width="60" height="30" as="geometry" />
        </mxCell>
        <mxCell id="atxJQaqEpM3TSjmgH-MS-40" value="&lt;b&gt;&lt;font style=&quot;font-size: 15px;&quot;&gt;interacts with&lt;/font&gt;&lt;/b&gt;" style="text;html=1;strokeColor=none;fillColor=none;align=center;verticalAlign=middle;whiteSpace=wrap;rounded=0;" vertex="1" parent="1">
          <mxGeometry x="162" y="209" width="110" height="30" as="geometry" />
        </mxCell>
        <mxCell id="atxJQaqEpM3TSjmgH-MS-41" value="&lt;b&gt;&lt;font style=&quot;font-size: 15px;&quot;&gt;derived from&lt;/font&gt;&lt;/b&gt;" style="text;html=1;strokeColor=none;fillColor=none;align=center;verticalAlign=middle;whiteSpace=wrap;rounded=0;" vertex="1" parent="1">
          <mxGeometry x="306" y="475" width="110" height="30" as="geometry" />
        </mxCell>
      </root>
    </mxGraphModel>
  </diagram>
</mxfile>
